<svg width="121" height="21" viewBox="0 0 121 21" fill="none" xmlns="http://www.w3.org/2000/svg">
<path d="M20.7108 8.0057C20.648 7.82059 20.5323 7.65794 20.378 7.53782C20.2238 7.4177 20.0377 7.34539 19.8428 7.32979L14.1418 6.87685L11.6748 1.41657C11.5962 1.24071 11.4684 1.09134 11.3068 0.986487C11.1452 0.881637 10.9567 0.825789 10.7641 0.825684C10.5714 0.825578 10.3829 0.881219 10.2212 0.985892C10.0595 1.09056 9.93151 1.23979 9.85275 1.41557L7.38574 6.87685L1.6847 7.32979C1.49316 7.34496 1.31004 7.41499 1.15726 7.53149C1.00447 7.648 0.888492 7.80605 0.823192 7.98673C0.757891 8.16742 0.746036 8.36309 0.789043 8.55033C0.832051 8.73758 0.9281 8.90847 1.0657 9.04256L5.27872 13.149L3.78872 19.6002C3.74347 19.7954 3.75797 19.9998 3.83034 20.1867C3.9027 20.3737 4.02958 20.5345 4.19452 20.6485C4.35946 20.7624 4.55484 20.8241 4.75531 20.8257C4.95577 20.8272 5.15207 20.7684 5.31872 20.657L10.7638 17.0275L16.2088 20.657C16.3791 20.7701 16.58 20.8283 16.7844 20.8238C16.9888 20.8194 17.187 20.7524 17.3522 20.632C17.5174 20.5115 17.6418 20.3434 17.7086 20.1502C17.7754 19.9569 17.7814 19.7479 17.7258 19.5512L15.8968 13.152L20.4328 9.07056C20.7298 8.80259 20.8388 8.38465 20.7108 8.0057Z" fill="#F3CD03"/>
<path d="M45.7108 8.0057C45.648 7.82059 45.5323 7.65794 45.378 7.53782C45.2238 7.4177 45.0377 7.34539 44.8428 7.32979L39.1418 6.87685L36.6748 1.41657C36.5962 1.24071 36.4684 1.09134 36.3068 0.986487C36.1452 0.881637 35.9567 0.825789 35.7641 0.825684C35.5714 0.825578 35.3829 0.881219 35.2212 0.985892C35.0595 1.09056 34.9315 1.23979 34.8528 1.41557L32.3857 6.87685L26.6847 7.32979C26.4932 7.34496 26.31 7.41499 26.1573 7.53149C26.0045 7.648 25.8885 7.80605 25.8232 7.98673C25.7579 8.16742 25.746 8.36309 25.789 8.55033C25.8321 8.73758 25.9281 8.90847 26.0657 9.04256L30.2787 13.149L28.7887 19.6002C28.7435 19.7954 28.758 19.9998 28.8303 20.1867C28.9027 20.3737 29.0296 20.5345 29.1945 20.6485C29.3595 20.7624 29.5548 20.8241 29.7553 20.8257C29.9558 20.8272 30.1521 20.7684 30.3187 20.657L35.7638 17.0275L41.2088 20.657C41.3791 20.7701 41.58 20.8283 41.7844 20.8238C41.9888 20.8194 42.187 20.7524 42.3522 20.632C42.5174 20.5115 42.6418 20.3434 42.7086 20.1502C42.7754 19.9569 42.7814 19.7479 42.7258 19.5512L40.8968 13.152L45.4328 9.07056C45.7298 8.80259 45.8388 8.38465 45.7108 8.0057Z" fill="#F3CD03"/>
<path d="M70.7108 8.0057C70.648 7.82059 70.5323 7.65794 70.378 7.53782C70.2238 7.4177 70.0377 7.34539 69.8428 7.32979L64.1418 6.87685L61.6748 1.41657C61.5962 1.24071 61.4684 1.09134 61.3068 0.986487C61.1452 0.881637 60.9567 0.825789 60.7641 0.825684C60.5714 0.825578 60.3829 0.881219 60.2212 0.985892C60.0595 1.09056 59.9315 1.23979 59.8528 1.41557L57.3857 6.87685L51.6847 7.32979C51.4932 7.34496 51.31 7.41499 51.1573 7.53149C51.0045 7.648 50.8885 7.80605 50.8232 7.98673C50.7579 8.16742 50.746 8.36309 50.789 8.55033C50.8321 8.73758 50.9281 8.90847 51.0657 9.04256L55.2787 13.149L53.7887 19.6002C53.7435 19.7954 53.758 19.9998 53.8303 20.1867C53.9027 20.3737 54.0296 20.5345 54.1945 20.6485C54.3595 20.7624 54.5548 20.8241 54.7553 20.8257C54.9558 20.8272 55.1521 20.7684 55.3187 20.657L60.7638 17.0275L66.2088 20.657C66.3791 20.7701 66.58 20.8283 66.7844 20.8238C66.9888 20.8194 67.187 20.7524 67.3522 20.632C67.5174 20.5115 67.6418 20.3434 67.7086 20.1502C67.7754 19.9569 67.7814 19.7479 67.7258 19.5512L65.8968 13.152L70.4328 9.07056C70.7298 8.80259 70.8388 8.38465 70.7108 8.0057Z" fill="#F3CD03"/>
<path d="M95.7108 8.0057C95.648 7.82059 95.5323 7.65794 95.378 7.53782C95.2238 7.4177 95.0377 7.34539 94.8428 7.32979L89.1418 6.87685L86.6748 1.41657C86.5962 1.24071 86.4684 1.09134 86.3068 0.986487C86.1452 0.881637 85.9567 0.825789 85.7641 0.825684C85.5714 0.825578 85.3829 0.881219 85.2212 0.985892C85.0595 1.09056 84.9315 1.23979 84.8528 1.41557L82.3857 6.87685L76.6847 7.32979C76.4932 7.34496 76.31 7.41499 76.1573 7.53149C76.0045 7.648 75.8885 7.80605 75.8232 7.98673C75.7579 8.16742 75.746 8.36309 75.789 8.55033C75.8321 8.73758 75.9281 8.90847 76.0657 9.04256L80.2787 13.149L78.7887 19.6002C78.7435 19.7954 78.758 19.9998 78.8303 20.1867C78.9027 20.3737 79.0296 20.5345 79.1945 20.6485C79.3595 20.7624 79.5548 20.8241 79.7553 20.8257C79.9558 20.8272 80.1521 20.7684 80.3187 20.657L85.7638 17.0275L91.2088 20.657C91.3791 20.7701 91.58 20.8283 91.7844 20.8238C91.9888 20.8194 92.187 20.7524 92.3522 20.632C92.5174 20.5115 92.6418 20.3434 92.7086 20.1502C92.7754 19.9569 92.7814 19.7479 92.7258 19.5512L90.8968 13.152L95.4328 9.07056C95.7298 8.80259 95.8388 8.38465 95.7108 8.0057Z" fill="#F3CD03"/>
<path d="M105.28 13.1478L103.79 19.5985C103.744 19.7939 103.757 19.9986 103.829 20.1859C103.901 20.3733 104.028 20.5345 104.193 20.6487C104.359 20.7628 104.554 20.8245 104.755 20.8257C104.956 20.8269 105.152 20.7675 105.319 20.6553L110.764 17.026L116.209 20.6553C116.379 20.7684 116.58 20.8266 116.784 20.8221C116.989 20.8177 117.187 20.7507 117.352 20.6303C117.517 20.5098 117.642 20.3417 117.709 20.1485C117.775 19.9553 117.781 19.7463 117.726 19.5495L115.897 13.1508L120.433 9.06957C120.578 8.93878 120.682 8.76829 120.731 8.57917C120.781 8.39006 120.773 8.19062 120.711 8.00551C120.648 7.82041 120.532 7.65776 120.378 7.53768C120.224 7.41761 120.038 7.34537 119.843 7.3299L114.142 6.87599L111.675 1.41604C111.596 1.24023 111.468 1.09093 111.307 0.98618C111.145 0.881425 110.956 0.825684 110.764 0.825684C110.571 0.825684 110.383 0.881425 110.221 0.98618C110.059 1.09093 109.931 1.24023 109.853 1.41604L107.386 6.87599L101.685 7.3289C101.493 7.34407 101.31 7.41409 101.157 7.53059C101.004 7.64709 100.888 7.80513 100.823 7.9858C100.758 8.16648 100.746 8.36213 100.789 8.54937C100.832 8.7366 100.928 8.90748 101.066 9.04157L105.28 13.1478ZM108.133 8.82261C108.311 8.80855 108.483 8.74674 108.629 8.64366C108.775 8.54058 108.891 8.40002 108.965 8.23673L110.764 4.25649L112.563 8.23673C112.636 8.40002 112.752 8.54058 112.898 8.64366C113.045 8.74674 113.216 8.80855 113.395 8.82261L117.367 9.13755L114.096 12.081C113.812 12.3369 113.699 12.7309 113.803 13.0988L115.056 17.4829L111.32 14.9924C111.156 14.8824 110.963 14.8236 110.765 14.8236C110.568 14.8236 110.375 14.8824 110.211 14.9924L106.307 17.5949L107.357 13.0498C107.395 12.8826 107.39 12.7084 107.342 12.5438C107.293 12.3792 107.204 12.2298 107.081 12.11L104.043 9.14855L108.133 8.82261Z" fill="#F3CD03"/>
</svg>
