<svg width="58" height="58" viewBox="0 0 58 58" fill="none" xmlns="http://www.w3.org/2000/svg">
<circle cx="29" cy="29" r="27.5" stroke="#2A2A2A" stroke-width="3"/>
<g clip-path="url(#clip0_2602_901)">
<path d="M28.4998 25.9546V33.5064H38.9943C38.5334 35.9351 37.1505 37.9915 35.0765 39.3742L41.4051 44.2847C45.0924 40.8812 47.2197 35.882 47.2197 29.9434C47.2197 28.5607 47.0956 27.231 46.8651 25.9548L28.4998 25.9546Z" fill="#4285F4"/>
<path d="M17.5712 33.2114L16.1439 34.304L11.0916 38.2394C14.3002 44.6035 20.8765 48.9999 28.4992 48.9999C33.764 48.9999 38.1781 47.2626 41.4045 44.2845L35.0759 39.374C33.3386 40.544 31.1227 41.2532 28.4992 41.2532C23.4292 41.2532 19.1216 37.8318 17.5792 33.2227L17.5712 33.2114Z" fill="#34A853"/>
<path d="M11.0917 20.7605C9.76219 23.384 9 26.3445 9 29.4999C9 32.6553 9.76219 35.6158 11.0917 38.2394C11.0917 38.257 17.58 33.2048 17.58 33.2048C17.19 32.0348 16.9594 30.794 16.9594 29.4997C16.9594 28.2055 17.19 26.9646 17.58 25.7946L11.0917 20.7605Z" fill="#FBBC05"/>
<path d="M28.4996 17.7645C31.3714 17.7645 33.9241 18.7572 35.9628 20.6718L41.5468 15.0878C38.1609 11.9324 33.7647 10 28.4996 10C20.8769 10 14.3002 14.3786 11.0916 20.7605L17.5796 25.795C19.1218 21.1859 23.4296 17.7645 28.4996 17.7645Z" fill="#EA4335"/>
</g>
<defs>
<clipPath id="clip0_2602_901">
<rect width="39" height="39" fill="white" transform="translate(9 10)"/>
</clipPath>
</defs>
</svg>
