<svg width="58" height="58" viewBox="0 0 58 58" fill="none" xmlns="http://www.w3.org/2000/svg">
<circle cx="29" cy="29" r="27.5" stroke="#2A2A2A" stroke-width="3"/>
<g clip-path="url(#clip0_2602_537)">
<path d="M28.5 49C39.2696 49 48 40.2696 48 29.5C48 18.7304 39.2696 10 28.5 10C17.7304 10 9 18.7304 9 29.5C9 40.2696 17.7304 49 28.5 49Z" fill="white"/>
<path d="M28.5 10C17.7309 10 9 18.7309 9 29.5C9 37.7654 14.1358 44.8272 21.3901 47.6679C21.2136 46.1272 21.0691 43.7519 21.4543 42.0667C21.8074 40.542 23.7333 32.3728 23.7333 32.3728C23.7333 32.3728 23.1556 31.2012 23.1556 29.484C23.1556 26.7716 24.7284 24.7494 26.6864 24.7494C28.3556 24.7494 29.158 26.0012 29.158 27.4938C29.158 29.163 28.0988 31.6667 27.537 33.9938C27.0716 35.9358 28.516 37.5247 30.4259 37.5247C33.8926 37.5247 36.5568 33.8654 36.5568 28.6012C36.5568 23.9309 33.2025 20.6728 28.4037 20.6728C22.8506 20.6728 19.5926 24.8296 19.5926 29.1309C19.5926 30.8 20.2346 32.5975 21.037 33.5765C21.1975 33.7691 21.2136 33.9457 21.1654 34.1383C21.021 34.7481 20.684 36.0802 20.6198 36.3531C20.5395 36.7062 20.3309 36.7864 19.9617 36.6099C17.5222 35.4704 15.9975 31.9235 15.9975 29.0506C15.9975 22.9037 20.4593 17.2543 28.8852 17.2543C35.642 17.2543 40.9062 22.0691 40.9062 28.521C40.9062 35.2457 36.6691 40.6543 30.7951 40.6543C28.821 40.6543 26.9593 39.6272 26.3333 38.4074C26.3333 38.4074 25.3543 42.1309 25.1136 43.0457C24.6802 44.7469 23.4926 46.8654 22.6901 48.1654C24.5198 48.7272 26.4457 49.0321 28.4679 49.0321C39.237 49.0321 47.9679 40.3012 47.9679 29.5321C48 18.7309 39.2691 10 28.5 10Z" fill="#E60019"/>
</g>
<defs>
<clipPath id="clip0_2602_537">
<rect width="39" height="39" fill="white" transform="translate(9 10)"/>
</clipPath>
</defs>
</svg>
