<svg width="58" height="58" viewBox="0 0 58 58" fill="none" xmlns="http://www.w3.org/2000/svg">
<circle cx="29" cy="29" r="27.5" stroke="#2A2A2A" stroke-width="3"/>
<g clip-path="url(#clip0_2602_459)">
<path d="M42.872 38.4967C42.3578 39.6846 41.7492 40.778 41.044 41.7833C40.0828 43.1537 39.2958 44.1023 38.6893 44.6291C37.7491 45.4938 36.7417 45.9366 35.663 45.9618C34.8885 45.9618 33.9546 45.7414 32.8675 45.2944C31.7768 44.8495 30.7745 44.6291 29.858 44.6291C28.8968 44.6291 27.8659 44.8495 26.7632 45.2944C25.6589 45.7414 24.7692 45.9744 24.0891 45.9975C23.0546 46.0415 22.0235 45.5861 20.9943 44.6291C20.3374 44.0562 19.5158 43.074 18.5315 41.6825C17.4754 40.1966 16.6072 38.4736 15.927 36.5092C15.1985 34.3874 14.8334 32.3328 14.8334 30.3437C14.8334 28.0651 15.3257 26.0999 16.3119 24.453C17.087 23.1302 18.118 22.0867 19.4085 21.3207C20.699 20.5547 22.0934 20.1643 23.595 20.1393C24.4167 20.1393 25.4941 20.3935 26.8331 20.893C28.1683 21.3942 29.0256 21.6483 29.4015 21.6483C29.6825 21.6483 30.6349 21.3511 32.2494 20.7587C33.7762 20.2092 35.0648 19.9817 36.1205 20.0714C38.981 20.3022 41.1301 21.4298 42.5593 23.4614C40.001 25.0115 38.7354 27.1826 38.7606 29.9678C38.7837 32.1372 39.5707 33.9425 41.1175 35.3759C41.8184 36.0412 42.6013 36.5554 43.4722 36.9206C43.2833 37.4683 43.084 37.993 42.872 38.4967ZM36.3115 12.6806C36.3115 14.3809 35.6902 15.9686 34.452 17.4381C32.9577 19.1851 31.1503 20.1945 29.1904 20.0353C29.1654 19.8313 29.1509 19.6166 29.1509 19.391C29.1509 17.7586 29.8615 16.0116 31.1235 14.5832C31.7535 13.86 32.5548 13.2587 33.5265 12.779C34.4961 12.3064 35.4132 12.0451 36.2758 12.0004C36.301 12.2277 36.3115 12.455 36.3115 12.6805V12.6806Z" fill="#111111"/>
</g>
<defs>
<clipPath id="clip0_2602_459">
<rect width="34" height="34" fill="white" transform="translate(12 12)"/>
</clipPath>
</defs>
</svg>
