<svg width="58" height="58" viewBox="0 0 58 58" fill="none" xmlns="http://www.w3.org/2000/svg">
<circle cx="29" cy="29" r="27.5" stroke="#2A2A2A" stroke-width="3"/>
<path d="M28.5 48.3906C38.933 48.3906 47.3906 39.933 47.3906 29.5C47.3906 19.067 38.933 10.6094 28.5 10.6094C18.067 10.6094 9.60938 19.067 9.60938 29.5C9.60938 39.933 18.067 48.3906 28.5 48.3906Z" fill="#EA4C89"/>
<path fill-rule="evenodd" clip-rule="evenodd" d="M28.5 10C17.7348 10 9 18.7348 9 29.5C9 40.2652 17.7348 49 28.5 49C39.244 49 48 40.2652 48 29.5C48 18.7348 39.244 10 28.5 10ZM41.3801 18.9886C43.7066 21.8227 45.1025 25.4392 45.1448 29.3519C44.5949 29.2463 39.0959 28.1252 33.5548 28.8232C33.4279 28.5483 33.3221 28.2521 33.1952 27.9561C32.8568 27.1524 32.4762 26.3276 32.0954 25.545C38.2288 23.0494 41.0206 19.4539 41.3801 18.9886ZM28.5 12.8764C32.7299 12.8764 36.6003 14.4626 39.5402 17.064C39.244 17.487 36.7272 20.8498 30.8053 23.0705C28.077 18.058 25.0526 13.955 24.5873 13.3205C25.8351 13.0244 27.1465 12.8764 28.5 12.8764ZM21.4149 14.4414C21.859 15.0336 24.82 19.1578 27.5906 24.0645C19.8075 26.1372 12.9338 26.0949 12.1936 26.0949C13.2722 20.9344 16.7619 16.641 21.4149 14.4414ZM11.8341 29.5212C11.8341 29.3519 11.8341 29.1828 11.8341 29.0136C12.5531 29.0347 20.6323 29.1405 28.9441 26.6448C29.4306 27.5753 29.8748 28.5271 30.2978 29.4788C30.0862 29.5423 29.8535 29.6058 29.6421 29.6692C21.0553 32.4397 16.487 40.0114 16.1063 40.6458C13.4626 37.7061 11.8341 33.7934 11.8341 29.5212ZM28.5 46.1659C24.6507 46.1659 21.0976 44.8547 18.2847 42.6551C18.5808 42.0418 21.9647 35.5277 31.3552 32.2495C31.3975 32.2283 31.4187 32.2283 31.461 32.2072C33.8085 38.2771 34.7604 43.3741 35.0141 44.8335C33.0049 45.7006 30.8053 46.1659 28.5 46.1659ZM37.7847 43.3108C37.6155 42.2955 36.7272 37.4311 34.5488 31.4457C39.7728 30.6209 44.3411 31.9746 44.9122 32.1649C44.1931 36.7967 41.5282 40.7939 37.7847 43.3108Z" fill="#C32361"/>
</svg>
