<svg width="58" height="58" viewBox="0 0 58 58" fill="none" xmlns="http://www.w3.org/2000/svg">
<circle cx="29" cy="29" r="27.5" stroke="#2A2A2A" stroke-width="3"/>
<g clip-path="url(#clip0_2602_554)">
<path fill-rule="evenodd" clip-rule="evenodd" d="M29 8C17.45 8 8 17.45 8 29C8 40.55 17.45 50 29 50C40.55 50 50 40.55 50 29C50 17.45 40.655 8 29 8ZM38.66 38.345C38.24 38.975 37.505 39.185 36.875 38.765C31.94 35.72 25.745 35.09 18.395 36.77C17.66 36.98 17.03 36.455 16.82 35.825C16.61 35.09 17.135 34.46 17.765 34.25C25.745 32.465 32.675 33.2 38.135 36.56C38.87 36.875 38.975 37.715 38.66 38.345ZM41.18 32.57C40.655 33.305 39.71 33.62 38.975 33.095C33.305 29.63 24.695 28.58 18.08 30.68C17.24 30.89 16.295 30.47 16.085 29.63C15.875 28.79 16.295 27.845 17.135 27.635C24.8 25.325 34.25 26.48 40.76 30.47C41.39 30.785 41.705 31.835 41.18 32.57ZM41.39 26.69C34.67 22.7 23.435 22.28 17.03 24.275C15.98 24.59 14.93 23.96 14.615 23.015C14.3 21.965 14.93 20.915 15.875 20.6C23.33 18.395 35.615 18.815 43.385 23.435C44.33 23.96 44.645 25.22 44.12 26.165C43.595 26.9 42.335 27.215 41.39 26.69Z" fill="#10BC4C"/>
</g>
<defs>
<clipPath id="clip0_2602_554">
<rect width="42" height="42" fill="white" transform="translate(8 8)"/>
</clipPath>
</defs>
</svg>
