<svg width="30" height="31" viewBox="0 0 30 31" fill="none" xmlns="http://www.w3.org/2000/svg">
<rect y="0.189941" width="30" height="30" rx="15" fill="white" fill-opacity="0.1"/>
<path d="M12.8894 18.4204C12.8894 18.4712 12.8386 18.4966 12.7625 18.4966C12.6863 18.522 12.6355 18.4712 12.6355 18.4204C12.6355 18.3696 12.6863 18.3188 12.7625 18.3188C12.8386 18.3188 12.8894 18.3696 12.8894 18.4204ZM12.1023 18.2935C12.1277 18.2427 12.2039 18.2173 12.28 18.2427C12.3562 18.2681 12.3816 18.3188 12.3816 18.3696C12.3562 18.4204 12.28 18.4458 12.2292 18.4204C12.1531 18.4204 12.1023 18.3442 12.1023 18.2935ZM13.2449 18.2681C13.2957 18.2427 13.3718 18.2935 13.3718 18.3442C13.3972 18.395 13.3464 18.4204 13.2703 18.4458C13.1941 18.4712 13.1179 18.4458 13.1179 18.395C13.1179 18.3188 13.1687 18.2681 13.2449 18.2681ZM14.8953 8.51807C18.4246 8.51807 21.2937 11.2095 21.2937 14.7134C21.2937 17.5317 19.5671 19.9438 17.0281 20.7817C16.698 20.8579 16.571 20.6548 16.571 20.4771C16.571 20.2739 16.5964 19.2075 16.5964 18.3696C16.5964 17.7603 16.3933 17.3794 16.1648 17.1763C17.5867 17.0239 19.0847 16.8208 19.0847 14.3833C19.0847 13.6724 18.8308 13.3423 18.4246 12.8853C18.4753 12.7075 18.7039 12.0474 18.3484 11.1587C17.8152 10.981 16.5964 11.8442 16.5964 11.8442C16.0886 11.6919 15.5554 11.6411 14.9968 11.6411C14.4636 11.6411 13.9304 11.6919 13.4226 11.8442C13.4226 11.8442 12.1785 11.0063 11.6707 11.1587C11.3152 12.0474 11.5183 12.7075 11.5945 12.8853C11.1882 13.3423 10.9851 13.6724 10.9851 14.3833C10.9851 16.8208 12.4324 17.0239 13.8542 17.1763C13.6511 17.354 13.4988 17.6333 13.448 18.0396C13.0671 18.2173 12.1531 18.4966 11.5945 17.5063C11.239 16.897 10.6042 16.8462 10.6042 16.8462C9.99487 16.8462 10.5789 17.2524 10.5789 17.2524C10.9851 17.4302 11.2644 18.1665 11.2644 18.1665C11.6453 19.3091 13.4226 18.9282 13.4226 18.9282C13.4226 19.4614 13.4226 20.3247 13.4226 20.5024C13.4226 20.6548 13.321 20.8579 12.991 20.8071C10.4519 19.9438 8.69995 17.5317 8.69995 14.7134C8.69995 11.2095 11.3914 8.51807 14.8953 8.51807ZM11.1628 17.2778C11.1882 17.2524 11.239 17.2778 11.2898 17.3032C11.3406 17.354 11.3406 17.4302 11.3152 17.4556C11.2644 17.481 11.2136 17.4556 11.1628 17.4302C11.1375 17.3794 11.1121 17.3032 11.1628 17.2778ZM10.8835 17.0747C10.9089 17.0493 10.9343 17.0493 10.9851 17.0747C11.0359 17.1001 11.0613 17.1255 11.0613 17.1509C11.0359 17.2017 10.9851 17.2017 10.9343 17.1763C10.8835 17.1509 10.8582 17.1255 10.8835 17.0747ZM11.696 17.9888C11.7468 17.938 11.823 17.9634 11.8738 18.0142C11.9246 18.0649 11.9246 18.1411 11.8992 18.1665C11.8738 18.2173 11.7976 18.1919 11.7468 18.1411C11.6707 18.0903 11.6707 18.0142 11.696 17.9888ZM11.4167 17.6079C11.4675 17.5825 11.5183 17.6079 11.5691 17.6587C11.5945 17.7095 11.5945 17.7856 11.5691 17.811C11.5183 17.8364 11.4675 17.811 11.4167 17.7603C11.366 17.7095 11.366 17.6333 11.4167 17.6079Z" fill="white"/>
</svg>
