<svg width="30" height="31" viewBox="0 0 30 31" fill="none" xmlns="http://www.w3.org/2000/svg">
<rect y="0.189941" width="30" height="30" rx="15" fill="white" fill-opacity="0.1"/>
<path d="M14.9976 11.895C16.5972 11.895 17.9175 13.2153 17.9175 14.8149C17.9175 16.4399 16.5972 17.7349 14.9976 17.7349C13.3726 17.7349 12.0776 16.4399 12.0776 14.8149C12.0776 13.2153 13.3726 11.895 14.9976 11.895ZM14.9976 16.7192C16.0386 16.7192 16.8765 15.8813 16.8765 14.8149C16.8765 13.7739 16.0386 12.936 14.9976 12.936C13.9312 12.936 13.0933 13.7739 13.0933 14.8149C13.0933 15.8813 13.9565 16.7192 14.9976 16.7192ZM18.7046 11.7935C18.7046 12.1743 18.3999 12.479 18.019 12.479C17.6382 12.479 17.3335 12.1743 17.3335 11.7935C17.3335 11.4126 17.6382 11.1079 18.019 11.1079C18.3999 11.1079 18.7046 11.4126 18.7046 11.7935ZM20.6343 12.479C20.6851 13.4185 20.6851 16.2368 20.6343 17.1763C20.5835 18.0903 20.3804 18.8774 19.7202 19.563C19.0601 20.2231 18.2476 20.4263 17.3335 20.4771C16.394 20.5278 13.5757 20.5278 12.6362 20.4771C11.7222 20.4263 10.9351 20.2231 10.2495 19.563C9.58936 18.8774 9.38623 18.0903 9.33545 17.1763C9.28467 16.2368 9.28467 13.4185 9.33545 12.479C9.38623 11.5649 9.58936 10.7524 10.2495 10.0923C10.9351 9.43213 11.7222 9.229 12.6362 9.17822C13.5757 9.12744 16.394 9.12744 17.3335 9.17822C18.2476 9.229 19.0601 9.43213 19.7202 10.0923C20.3804 10.7524 20.5835 11.5649 20.6343 12.479ZM19.4155 18.1665C19.7202 17.4302 19.644 15.6528 19.644 14.8149C19.644 14.0024 19.7202 12.2251 19.4155 11.4634C19.2124 10.981 18.8315 10.5747 18.3491 10.397C17.5874 10.0923 15.8101 10.1685 14.9976 10.1685C14.1597 10.1685 12.3823 10.0923 11.646 10.397C11.1382 10.6001 10.7573 10.981 10.5542 11.4634C10.2495 12.2251 10.3257 14.0024 10.3257 14.8149C10.3257 15.6528 10.2495 17.4302 10.5542 18.1665C10.7573 18.6743 11.1382 19.0552 11.646 19.2583C12.3823 19.563 14.1597 19.4868 14.9976 19.4868C15.8101 19.4868 17.5874 19.563 18.3491 19.2583C18.8315 19.0552 19.2378 18.6743 19.4155 18.1665Z" fill="white"/>
</svg>
