<svg width="30" height="31" viewBox="0 0 30 31" fill="none" xmlns="http://www.w3.org/2000/svg">
<rect y="0.189941" width="30" height="30" rx="15" fill="white" fill-opacity="0.1"/>
<path d="M20.1543 12.1743C20.1543 12.3013 20.1543 12.4028 20.1543 12.5298C20.1543 16.0591 17.4883 20.0962 12.5879 20.0962C11.0645 20.0962 9.66797 19.6646 8.5 18.9028C8.70312 18.9282 8.90625 18.9536 9.13477 18.9536C10.3789 18.9536 11.5215 18.522 12.4355 17.811C11.2676 17.7856 10.2773 17.0239 9.94727 15.9575C10.125 15.9829 10.2773 16.0083 10.4551 16.0083C10.6836 16.0083 10.9375 15.9575 11.1406 15.9067C9.92188 15.6528 9.00781 14.5864 9.00781 13.2915V13.2661C9.36328 13.4692 9.79492 13.5708 10.2266 13.5962C9.49023 13.1138 9.0332 12.3013 9.0332 11.3872C9.0332 10.8794 9.16016 10.4224 9.38867 10.0415C10.709 11.6411 12.6895 12.7075 14.8984 12.8345C14.8477 12.6313 14.8223 12.4282 14.8223 12.2251C14.8223 10.7524 16.0156 9.55908 17.4883 9.55908C18.25 9.55908 18.9355 9.86377 19.4434 10.397C20.0273 10.27 20.6113 10.0415 21.1191 9.73682C20.916 10.3716 20.5098 10.8794 19.9512 11.2095C20.4844 11.1587 21.0176 11.0063 21.4746 10.8032C21.1191 11.3364 20.6621 11.7935 20.1543 12.1743Z" fill="white"/>
</svg>
