<svg width="44" height="44" viewBox="0 0 44 44" fill="none" xmlns="http://www.w3.org/2000/svg">
<g clip-path="url(#clip0_2602_1107)">
<path d="M6.84198 12.276C7.24698 12.276 7.57531 11.9477 7.57531 11.5427C7.57531 11.1377 7.24698 10.8093 6.84198 10.8093C6.43697 10.8093 6.10864 11.1377 6.10864 11.5427C6.10864 11.9477 6.43697 12.276 6.84198 12.276Z" fill="#111111"/>
<path d="M11.7333 12.276C12.1383 12.276 12.4667 11.9477 12.4667 11.5427C12.4667 11.1377 12.1383 10.8093 11.7333 10.8093C11.3283 10.8093 11 11.1377 11 11.5427C11 11.9477 11.3283 12.276 11.7333 12.276Z" fill="#111111"/>
<path d="M9.29132 12.276C9.69633 12.276 10.0247 11.9477 10.0247 11.5427C10.0247 11.1377 9.69633 10.8093 9.29132 10.8093C8.88631 10.8093 8.55798 11.1377 8.55798 11.5427C8.55798 11.9477 8.88631 12.276 9.29132 12.276Z" fill="#111111"/>
<path d="M14.6666 22.1833L16.8666 19.9833C17.0047 19.8452 17.0823 19.6579 17.0823 19.4627C17.0823 19.2674 17.0047 19.0801 16.8666 18.942C16.7285 18.8039 16.5412 18.7263 16.3459 18.7263C16.1507 18.7263 15.9634 18.8039 15.8253 18.942L13.0973 21.6773C12.9607 21.8147 12.884 22.0006 12.884 22.1943C12.884 22.3881 12.9607 22.5739 13.0973 22.7113L15.8253 25.4467C15.8935 25.5154 15.9746 25.5699 16.0639 25.6072C16.1533 25.6444 16.2491 25.6636 16.3459 25.6636C16.4428 25.6636 16.5386 25.6444 16.628 25.6072C16.7173 25.5699 16.7984 25.5154 16.8666 25.4467C17.0032 25.3093 17.0799 25.1234 17.0799 24.9297C17.0799 24.7359 17.0032 24.5501 16.8666 24.4127L14.6666 22.1833Z" fill="#111111"/>
<path d="M25.168 25.4321C25.3054 25.5686 25.4913 25.6453 25.685 25.6453C25.8788 25.6453 26.0646 25.5686 26.202 25.4321L28.9374 22.7334C29.074 22.596 29.1506 22.4101 29.1506 22.2164C29.1506 22.0227 29.074 21.8368 28.9374 21.6994L26.202 18.9641C26.0639 18.8269 25.877 18.7503 25.6824 18.751C25.4878 18.7517 25.3015 18.8296 25.1644 18.9677C25.0273 19.1058 24.9506 19.2927 24.9513 19.4873C24.952 19.6819 25.0299 19.8683 25.168 20.0054L27.368 22.2054L25.168 24.4054C25.0337 24.5425 24.9584 24.7268 24.9584 24.9187C24.9584 25.1107 25.0337 25.295 25.168 25.4321Z" fill="#111111"/>
<path d="M22.7333 19.1767C22.6496 19.1282 22.5572 19.0967 22.4613 19.0841C22.3654 19.0715 22.2679 19.078 22.1745 19.1032C22.0811 19.1285 21.9937 19.1719 21.9172 19.2311C21.8406 19.2902 21.7766 19.364 21.7287 19.448L19.0227 24.2C18.9696 24.2835 18.934 24.3768 18.9179 24.4744C18.9019 24.572 18.9057 24.6718 18.9293 24.7679C18.9528 24.8639 18.9955 24.9543 19.0548 25.0334C19.1142 25.1125 19.1889 25.1788 19.2745 25.2283C19.3602 25.2778 19.4549 25.3095 19.5531 25.3214C19.6513 25.3333 19.7509 25.3253 19.8459 25.2977C19.9408 25.2702 20.0293 25.2237 20.1058 25.1611C20.1824 25.0984 20.2455 25.021 20.2913 24.9333L23.0267 20.2033C23.0778 20.1174 23.1109 20.0219 23.1238 19.9228C23.1367 19.8236 23.1292 19.7228 23.1017 19.6267C23.0742 19.5305 23.0274 19.441 22.964 19.3636C22.9007 19.2862 22.8222 19.2226 22.7333 19.1767Z" fill="#111111"/>
<path d="M40.964 29.3334C40.9207 29.333 40.8786 29.3195 40.8432 29.2946C40.8078 29.2697 40.7809 29.2346 40.766 29.194C40.4742 28.4264 40.0606 27.7108 39.5413 27.0747C39.5167 27.0392 39.5035 26.9969 39.5035 26.9537C39.5035 26.9105 39.5167 26.8683 39.5413 26.8327C39.7646 26.4456 39.8252 25.9857 39.7097 25.5539C39.5942 25.1222 39.3121 24.7539 38.9253 24.53L38.3753 24.2V10.8094C38.3753 10.2259 38.1435 9.66632 37.7309 9.25374C37.3183 8.84116 36.7588 8.60938 36.1753 8.60938H5.86663C5.28315 8.60938 4.72357 8.84116 4.31099 9.25374C3.89841 9.66632 3.66663 10.2259 3.66663 10.8094V29.392C3.66856 29.8446 3.8492 30.2781 4.16922 30.5981C4.48923 30.9181 4.92272 31.0988 5.37529 31.1007H15.4L14.6666 33.814H13.6913C12.977 33.8145 12.2838 34.0558 11.7236 34.4989C11.1634 34.942 10.7689 35.5611 10.604 36.256H8.79996C8.60547 36.256 8.41894 36.3333 8.28141 36.4708C8.14389 36.6084 8.06663 36.7949 8.06663 36.9894C8.06663 37.1839 8.14389 37.3704 8.28141 37.5079C8.41894 37.6454 8.60547 37.7227 8.79996 37.7227H27.478C27.4655 37.8979 27.4829 38.074 27.5293 38.2434C27.5843 38.4585 27.6821 38.6603 27.8169 38.8367C27.9518 39.0131 28.1208 39.1605 28.314 39.27L29.8613 40.1647C30.0534 40.275 30.2654 40.3464 30.4851 40.3747C30.7048 40.4031 30.9279 40.3879 31.1417 40.33C31.3556 40.2721 31.5559 40.1727 31.7313 40.0374C31.9067 39.9021 32.0537 39.7335 32.164 39.5414C32.1877 39.504 32.2219 39.4743 32.2623 39.4561C32.3027 39.4378 32.3475 39.4318 32.3913 39.4387C33.1969 39.578 34.0204 39.578 34.826 39.4387C34.8706 39.4315 34.9163 39.4382 34.957 39.4578C34.9977 39.4775 35.0313 39.5092 35.0533 39.5487C35.2028 39.8046 35.417 40.0166 35.6745 40.1634C35.932 40.3102 36.2236 40.3865 36.52 40.3847C36.8156 40.3876 37.1067 40.3116 37.3633 40.1647L38.9106 39.27C39.1027 39.1592 39.271 39.0114 39.4057 38.8352C39.5403 38.659 39.6388 38.4578 39.6953 38.2434C39.7537 38.0302 39.7689 37.8075 39.7399 37.5883C39.7109 37.3692 39.6384 37.1581 39.5266 36.9674C39.5014 36.9307 39.4879 36.8872 39.4879 36.8427C39.4879 36.7982 39.5014 36.7547 39.5266 36.718C40.0444 36.0835 40.4578 35.3706 40.7513 34.606C40.7653 34.5648 40.792 34.5291 40.8276 34.5041C40.8632 34.479 40.9058 34.466 40.9493 34.4667C41.396 34.4648 41.8239 34.2865 42.1398 33.9706C42.4557 33.6547 42.634 33.2268 42.636 32.78V30.9907C42.6283 30.551 42.4493 30.1317 42.1369 29.8221C41.8246 29.5125 41.4037 29.3371 40.964 29.3334ZM5.13329 10.8094C5.13329 10.6149 5.21055 10.4284 5.34808 10.2908C5.48561 10.1533 5.67213 10.076 5.86663 10.076H36.1753C36.3698 10.076 36.5563 10.1533 36.6938 10.2908C36.8314 10.4284 36.9086 10.6149 36.9086 10.8094V13.0094H5.13329V10.8094ZM5.37529 29.634C5.34351 29.634 5.31204 29.6278 5.28268 29.6156C5.25332 29.6035 5.22664 29.5856 5.20417 29.5632C5.1817 29.5407 5.16388 29.514 5.15171 29.4847C5.13955 29.4553 5.13329 29.4238 5.13329 29.392V14.476H36.9086V23.4667C36.5616 23.3745 36.1942 23.396 35.8603 23.528C35.5263 23.66 35.2435 23.8955 35.0533 24.2C35.0305 24.2362 34.9973 24.2647 34.958 24.2817C34.9188 24.2987 34.8753 24.3035 34.8333 24.2954C34.0271 24.1633 33.2048 24.1633 32.3986 24.2954C32.3566 24.3045 32.3127 24.3003 32.2733 24.2832C32.2338 24.266 32.2007 24.237 32.1786 24.2C32.0685 24.0078 31.9214 23.8392 31.7458 23.7041C31.5702 23.569 31.3696 23.4699 31.1555 23.4127C30.9415 23.3554 30.7182 23.3411 30.4986 23.3705C30.279 23.3999 30.0674 23.4725 29.876 23.584L28.3286 24.4787C28.136 24.5871 27.9672 24.7332 27.8324 24.9084C27.6975 25.0835 27.5994 25.2841 27.544 25.498C27.4267 25.9304 27.4847 26.3915 27.7053 26.7814C27.732 26.816 27.7466 26.8586 27.7466 26.9024C27.7466 26.9462 27.732 26.9887 27.7053 27.0234C27.1859 27.6595 26.7724 28.3751 26.4806 29.1427C26.4657 29.1833 26.4388 29.2184 26.4034 29.2433C26.368 29.2682 26.3259 29.2817 26.2826 29.282C25.9234 29.2826 25.5739 29.3982 25.2853 29.612L5.37529 29.634ZM24.9333 33.814H16.1333L16.8666 31.1007H24.5666V32.78C24.5713 33.1557 24.7002 33.5193 24.9333 33.814ZM13.6986 35.2807H26.752C26.9196 35.6188 27.1107 35.9447 27.324 36.256H12.1513C12.2897 35.9647 12.5078 35.7185 12.7804 35.5459C13.0529 35.3733 13.3687 35.2813 13.6913 35.2807H13.6986ZM41.184 32.78C41.184 32.8384 41.1608 32.8943 41.1195 32.9356C41.0783 32.9769 41.0223 33 40.964 33C40.6224 33.0009 40.289 33.105 40.0076 33.2987C39.7263 33.4924 39.51 33.7666 39.3873 34.0854C39.1529 34.7037 38.8211 35.2805 38.4046 35.794C38.1898 36.0593 38.0602 36.3833 38.0327 36.7236C38.0053 37.0638 38.0812 37.4044 38.2506 37.7007C38.2624 37.726 38.2685 37.7535 38.2685 37.7814C38.2685 37.8092 38.2624 37.8368 38.2506 37.862C38.2442 37.8912 38.2318 37.9186 38.2141 37.9426C38.1964 37.9666 38.1739 37.9866 38.148 38.0014L36.6226 38.8667C36.5971 38.8809 36.5691 38.8898 36.5401 38.8931C36.5112 38.8963 36.4819 38.8938 36.4539 38.8856C36.4259 38.8774 36.3998 38.8637 36.3772 38.8454C36.3545 38.827 36.3358 38.8044 36.322 38.7787C36.1486 38.4832 35.8896 38.2472 35.5793 38.1018C35.2691 37.9565 34.922 37.9087 34.584 37.9647C33.9384 38.0747 33.2789 38.0747 32.6333 37.9647C32.2945 37.9094 31.9469 37.9583 31.6365 38.105C31.3261 38.2516 31.0676 38.4892 30.8953 38.786C30.8648 38.8352 30.8168 38.8709 30.7609 38.8859C30.7051 38.9009 30.6456 38.894 30.5946 38.8667L29.0473 37.972C29.0214 37.9573 28.9988 37.9373 28.9811 37.9133C28.9635 37.8893 28.951 37.8618 28.9446 37.8327C28.9328 37.8074 28.9267 37.7799 28.9267 37.752C28.9267 37.7242 28.9328 37.6966 28.9446 37.6714C29.1121 37.3745 29.1869 37.0342 29.1594 36.6945C29.132 36.3547 29.0036 36.0309 28.7906 35.7647C28.3704 35.2525 28.036 34.6754 27.8006 34.056C27.6776 33.7456 27.4645 33.4792 27.1887 33.291C26.913 33.1028 26.5872 33.0015 26.2533 33C26.1949 33 26.139 32.9769 26.0977 32.9356C26.0565 32.8943 26.0333 32.8384 26.0333 32.78V30.9907C26.0323 30.9615 26.0373 30.9325 26.048 30.9053C26.0586 30.8782 26.0748 30.8535 26.0954 30.8329C26.1161 30.8122 26.1407 30.7961 26.1679 30.7854C26.1951 30.7747 26.2241 30.7697 26.2533 30.7707C26.5939 30.7694 26.9261 30.665 27.2062 30.4713C27.4863 30.2776 27.7012 30.0036 27.8226 29.6854C28.0563 29.0652 28.3908 28.4879 28.8126 27.9767C29.0256 27.7105 29.154 27.3867 29.1814 27.0469C29.2089 26.7072 29.1341 26.367 28.9666 26.07C28.9547 26.0435 28.9485 26.0148 28.9485 25.9857C28.9485 25.9566 28.9547 25.9279 28.9666 25.9014C28.9726 25.873 28.9849 25.8464 29.0027 25.8235C29.0205 25.8006 29.0433 25.7821 29.0693 25.7694L30.6166 24.8747C30.6526 24.8647 30.6906 24.8647 30.7266 24.8747C30.7633 24.8752 30.7993 24.8848 30.8313 24.9027C30.8634 24.9207 30.8904 24.9463 30.91 24.9774C31.0831 25.2735 31.3417 25.5105 31.6518 25.657C31.962 25.8036 32.3092 25.853 32.648 25.7987C33.2935 25.6887 33.9531 25.6887 34.5986 25.7987C34.9396 25.8448 35.2865 25.7868 35.594 25.6324C35.9015 25.478 36.1552 25.2344 36.322 24.9334C36.3363 24.9092 36.3553 24.8881 36.3778 24.8713C36.4004 24.8545 36.426 24.8423 36.4533 24.8355C36.4806 24.8287 36.509 24.8273 36.5368 24.8315C36.5646 24.8358 36.5913 24.8454 36.6153 24.86L38.1626 25.7547C38.1886 25.7675 38.2114 25.786 38.2292 25.8089C38.247 25.8317 38.2593 25.8583 38.2653 25.8867C38.2772 25.9132 38.2834 25.942 38.2834 25.971C38.2834 26.0001 38.2772 26.0289 38.2653 26.0554C38.0965 26.3506 38.0209 26.6899 38.0484 27.0289C38.0759 27.3678 38.2051 27.6905 38.4193 27.9547C38.836 28.4708 39.1677 29.0501 39.402 29.6707C39.5176 29.9948 39.7287 30.2763 40.0076 30.4779C40.2865 30.6795 40.6199 30.7919 40.964 30.8C40.9931 30.799 41.0222 30.804 41.0493 30.8147C41.0765 30.8254 41.1012 30.8416 41.1218 30.8622C41.1424 30.8828 41.1586 30.9075 41.1693 30.9347C41.18 30.9618 41.185 30.9909 41.184 31.02V32.78Z" fill="#111111"/>
<path d="M33.6086 28.556C32.9502 28.556 32.3065 28.7513 31.759 29.1171C31.2114 29.483 30.7847 30.0029 30.5327 30.6113C30.2807 31.2196 30.2148 31.8891 30.3433 32.5349C30.4717 33.1807 30.7888 33.7739 31.2544 34.2396C31.7201 34.7052 32.3133 35.0223 32.9591 35.1507C33.6049 35.2792 34.2744 35.2133 34.8827 34.9613C35.4911 34.7093 36.011 34.2825 36.3769 33.735C36.7427 33.1875 36.938 32.5438 36.938 31.8854C36.938 31.0024 36.5872 30.1555 35.9628 29.5312C35.3385 28.9068 34.4916 28.556 33.6086 28.556ZM33.6086 33.748C33.2402 33.748 32.8801 33.6388 32.5738 33.4341C32.2675 33.2294 32.0287 32.9385 31.8878 32.5982C31.7468 32.2578 31.7099 31.8833 31.7818 31.522C31.8536 31.1607 32.031 30.8288 32.2915 30.5683C32.552 30.3078 32.8839 30.1304 33.2452 30.0585C33.6066 29.9866 33.9811 30.0235 34.3214 30.1645C34.6618 30.3055 34.9527 30.5442 35.1574 30.8505C35.3621 31.1568 35.4713 31.517 35.4713 31.8854C35.4674 32.3768 35.2695 32.8468 34.9206 33.193C34.5717 33.5392 34.1001 33.7334 33.6086 33.7334V33.748Z" fill="#111111"/>
</g>
<defs>
<clipPath id="clip0_2602_1107">
<rect width="44" height="44" fill="white"/>
</clipPath>
</defs>
</svg>
