<svg width="55" height="55" viewBox="0 0 55 55" fill="none" xmlns="http://www.w3.org/2000/svg">
<path d="M43.3386 21.665C43.3386 22.4291 43.3386 23.1932 43.3386 23.9573C46.1238 23.9573 48.9091 23.9573 51.6943 23.9573C51.6943 23.1932 51.6943 22.4291 51.6943 21.665C48.9091 21.665 46.1238 21.665 43.3386 21.665Z" fill="#111111"/>
<path d="M44.3092 27.012C43.9636 27.6939 43.618 28.3759 43.2725 29.0579C45.7589 30.3124 48.2374 31.5827 50.7239 32.8372C51.0695 32.1552 51.4151 31.4733 51.7607 30.7913C49.2742 29.5368 46.7957 28.2665 44.3092 27.012Z" fill="#111111"/>
<path d="M50.7239 12.785C48.2374 14.0395 45.7589 15.3098 43.2725 16.5643C43.618 17.2463 43.9636 17.9283 44.3092 18.6103C46.7912 17.3453 49.2787 16.0912 51.7607 14.8262C51.4151 14.1458 51.0695 13.4654 50.7239 12.785Z" fill="#111111"/>
<path d="M31.5406 11.709C24.7557 13.9087 17.9693 16.1034 11.1841 18.302C11.0551 18.2811 10.9379 18.2259 10.8037 18.2259H5.77722C4.39219 18.2259 3.23938 19.3787 3.23938 20.7638V29.7424C3.23938 31.1275 4.39219 32.2803 5.77722 32.2803H6.58736L12.0659 47.6282H20.1539L15.2706 33.0546C20.6925 34.1791 26.1144 35.3039 31.5361 36.4294V36.4787C31.5361 38.9186 33.6075 40.8651 36.106 40.8651C38.6045 40.8651 40.6759 38.9186 40.6759 36.4787V11.7627C40.6759 9.32275 38.6045 7.37183 36.1153 7.37183C33.626 7.37183 31.5714 9.29477 31.5406 11.709ZM36.106 9.66349C37.4286 9.66349 38.3842 10.6092 38.3842 11.7627V36.4787C38.3842 37.6322 37.4286 38.5734 36.106 38.5734C34.7834 38.5734 33.8278 37.6322 33.8278 36.4787V11.7627C33.8278 10.6092 34.7834 9.66349 36.106 9.66349ZM31.5361 14.117V34.0885C25.4802 32.8321 19.4243 31.5758 13.3684 30.3198V20.0028C19.4243 18.0409 25.4805 16.0799 31.5361 14.117ZM5.77722 20.5176H10.8037C10.9588 20.5176 11.0498 20.6086 11.0498 20.7638V24.1073H5.53105V20.7638C5.53105 20.6087 5.62212 20.5176 5.77722 20.5176ZM5.53105 26.3989H11.0498V29.7424C11.0498 29.8975 10.9588 29.9886 10.8037 29.9886H5.77722C5.62212 29.9886 5.53105 29.8975 5.53105 29.7424V26.3989ZM11.1707 32.2042C11.6704 32.3078 12.1705 32.4094 12.6701 32.513L16.967 45.3365H13.6817L9.01778 32.2803H10.8037C10.9334 32.2803 11.0458 32.2236 11.1707 32.2042Z" fill="#111111"/>
</svg>
