<svg width="43" height="43" viewBox="0 0 43 43" fill="none" xmlns="http://www.w3.org/2000/svg">
<path d="M2.01562 26.875C1.64475 26.875 1.34375 26.574 1.34375 26.2031V4.70312C1.34375 3.59184 2.24809 2.6875 3.35938 2.6875H39.6406C40.7519 2.6875 41.6562 3.59184 41.6562 4.70312V6.71875C41.6562 7.08962 41.3553 7.39062 40.9844 7.39062C40.6135 7.39062 40.3125 7.08962 40.3125 6.71875V4.70312C40.3125 4.33359 40.0102 4.03125 39.6406 4.03125H3.35938C2.98984 4.03125 2.6875 4.33359 2.6875 4.70312V26.2031C2.6875 26.574 2.3865 26.875 2.01562 26.875Z" fill="#111111"/>
<path d="M21.5 41.6562H14.1094C13.7385 41.6562 13.4375 41.3552 13.4375 40.9844C13.4375 40.6135 13.7385 40.3125 14.1094 40.3125H15.4531C16.5644 40.3125 17.4688 39.4082 17.4688 38.2969V34.9375C17.4688 34.5666 17.7698 34.2656 18.1406 34.2656C18.5115 34.2656 18.8125 34.5666 18.8125 34.9375V38.2969C18.8125 39.0534 18.5612 39.7508 18.1393 40.3125H21.5C21.8709 40.3125 22.1719 40.6135 22.1719 40.9844C22.1719 41.3552 21.8709 41.6562 21.5 41.6562Z" fill="#111111"/>
<path d="M20.8281 34.9375H3.35938C2.24809 34.9375 1.34375 34.0332 1.34375 32.9219V28.8906C1.34375 28.5197 1.64475 28.2188 2.01562 28.2188H20.8281C21.199 28.2188 21.5 28.5197 21.5 28.8906C21.5 29.2615 21.199 29.5625 20.8281 29.5625H2.6875V32.9219C2.6875 33.2914 2.98984 33.5938 3.35938 33.5938H20.8281C21.199 33.5938 21.5 33.8948 21.5 34.2656C21.5 34.6365 21.199 34.9375 20.8281 34.9375Z" fill="#111111"/>
<path d="M28.8906 12.0938H35.6094C35.9802 12.0938 36.2812 11.7928 36.2812 11.4219C36.2812 11.051 35.9802 10.75 35.6094 10.75H28.8906C28.5197 10.75 28.2188 11.051 28.2188 11.4219C28.2188 11.7928 28.5197 12.0938 28.8906 12.0938Z" fill="#111111"/>
<path d="M31.5781 38.9688H32.9219C33.2927 38.9688 33.5938 38.6678 33.5938 38.2969C33.5938 37.926 33.2927 37.625 32.9219 37.625H31.5781C31.2072 37.625 30.9062 37.926 30.9062 38.2969C30.9062 38.6678 31.2072 38.9688 31.5781 38.9688Z" fill="#111111"/>
<path d="M38.2969 41.6562H26.2031C24.3501 41.6562 22.8438 40.1499 22.8438 38.2969V11.4219C22.8438 9.56884 24.3501 8.0625 26.2031 8.0625H38.2969C40.1499 8.0625 41.6562 9.56884 41.6562 11.4219V38.2969C41.6562 40.1499 40.1499 41.6562 38.2969 41.6562ZM26.2031 9.40625C25.0918 9.40625 24.1875 10.3106 24.1875 11.4219V38.2969C24.1875 39.4082 25.0918 40.3125 26.2031 40.3125H38.2969C39.4082 40.3125 40.3125 39.4082 40.3125 38.2969V11.4219C40.3125 10.3106 39.4082 9.40625 38.2969 9.40625H26.2031Z" fill="#111111"/>
</svg>
