<svg width="47" height="47" viewBox="0 0 47 47" fill="none" xmlns="http://www.w3.org/2000/svg">
<mask id="path-1-inside-1_2602_917" fill="white">
<path d="M5.2876 1.17505C3.67292 1.17505 2.3501 2.49782 2.3501 4.11255V21.7361H43.4737V4.11255C43.4737 2.49782 42.1494 1.17505 40.5347 1.17505H5.2876ZM21.4438 3.39539H24.3828C24.7889 3.39384 25.1192 3.7222 25.12 4.12833L25.1215 5.63437C25.2337 5.67761 25.3719 5.73818 25.4815 5.78783L26.5501 4.72356C26.8423 4.43306 27.2992 4.43879 27.5857 4.72356L29.6611 6.79473C29.9497 7.08185 29.9497 7.54893 29.6611 7.83605L28.5983 8.90175C28.6469 9.01078 28.7053 9.15014 28.7475 9.26177H30.2578C30.6634 9.26338 30.9909 9.59344 30.9893 9.99901V12.9308C30.9885 13.3347 30.6617 13.6621 30.2578 13.6637H28.7503C28.7081 13.7754 28.6497 13.9161 28.6012 14.0252L29.6669 15.098C29.9547 15.385 29.9502 15.8481 29.6624 16.1351L27.587 18.2062C27.3005 18.491 26.8379 18.491 26.5514 18.2062L25.4857 17.1434C25.3761 17.1931 25.2321 17.2493 25.1199 17.2926V18.7972C25.1215 19.205 24.7905 19.536 24.3827 19.5344H21.4437C21.0382 19.5328 20.7107 19.2027 20.7122 18.7972V17.2897C20.6005 17.2474 20.457 17.1892 20.3479 17.1405L19.2808 18.2062C18.9938 18.4939 18.5278 18.4939 18.2409 18.2062L16.164 16.1351C15.8764 15.8481 15.8764 15.3821 16.164 15.0952L17.2326 14.028C17.1829 13.9187 17.121 13.7758 17.0777 13.6637H15.573C15.1669 13.6653 14.8366 13.3369 14.8358 12.9308V9.99902C14.8343 9.59121 15.1652 9.26024 15.573 9.26178H17.0805C17.1238 9.15045 17.1803 9.01045 17.2297 8.90176L16.164 7.83606C15.8754 7.54894 15.8754 7.08186 16.164 6.79474L18.2409 4.72357C18.5278 4.43594 18.9938 4.43594 19.2808 4.72357L20.3508 5.78784C20.4596 5.73927 20.6007 5.67948 20.7122 5.63724V4.12833C20.713 3.72444 21.04 3.397 21.4438 3.39539ZM22.1825 4.86557V6.17081C22.1811 6.50121 21.9592 6.79001 21.6404 6.87649C21.2643 6.97972 20.9057 7.12999 20.566 7.32114C20.2784 7.4852 19.9165 7.43643 19.6825 7.20209L18.7617 6.27982L17.7261 7.3154L18.6469 8.24198C18.8812 8.47596 18.93 8.83785 18.766 9.12552C18.5721 9.46364 18.4228 9.82492 18.317 10.1998C18.2262 10.5142 17.9385 10.7306 17.6113 10.7305H16.3047V12.1935H17.6113C17.9405 12.1944 18.229 12.4142 18.317 12.7314C18.4228 13.1063 18.5722 13.4662 18.766 13.8043C18.93 14.092 18.8812 14.4539 18.6469 14.6878L17.7261 15.6144L18.7617 16.65L19.6825 15.7292C19.9151 15.4929 20.2771 15.4418 20.566 15.6044C20.9057 15.7955 21.2643 15.9458 21.6404 16.049C21.9608 16.1359 22.183 16.427 22.1825 16.759V18.0657H23.6513V16.7647C23.652 16.436 23.8711 16.1477 24.1877 16.059C24.5636 15.9534 24.9216 15.8037 25.2606 15.6101C25.547 15.4446 25.9088 15.4909 26.1441 15.7234L27.0721 16.65L28.1077 15.6144L27.1855 14.6936C26.954 14.4605 26.9054 14.1021 27.0664 13.8158C27.2579 13.4761 27.4078 13.1116 27.5111 12.7357C27.5974 12.4173 27.8854 12.1956 28.2153 12.1935H29.5277V10.7305H28.2153C27.887 10.7292 27.5996 10.5102 27.5111 10.1941C27.4079 9.81825 27.2579 9.45512 27.0664 9.11546C26.9046 8.82882 26.9531 8.46951 27.1855 8.23622L28.1077 7.31539L27.0721 6.2798L26.1441 7.20207C25.9101 7.43642 25.5483 7.48519 25.2606 7.32112C24.9216 7.12747 24.5636 6.97641 24.1877 6.87074C23.8717 6.78226 23.6526 6.49474 23.6513 6.16649V4.86555L22.1825 4.86557ZM22.914 8.53027C24.5276 8.53027 25.8515 9.85429 25.8515 11.4678C25.8515 13.0813 24.5276 14.4067 22.914 14.4067C21.3004 14.4067 19.9751 13.0813 19.9751 11.4678C19.9751 9.85429 21.3004 8.53027 22.914 8.53027ZM22.914 9.99902C22.0941 9.99902 21.4438 10.6482 21.4438 11.4678C21.4438 12.2873 22.0941 12.9365 22.914 12.9365C23.734 12.9365 24.3828 12.2873 24.3828 11.4678C24.3828 10.6482 23.734 9.99902 22.914 9.99902ZM2.3501 23.2063V24.6765C2.3501 26.2912 3.67292 27.614 5.2876 27.614H40.5347C42.1494 27.614 43.4737 26.2912 43.4737 24.6765V23.2063H2.3501ZM18.383 29.0842C18.1814 31.7072 17.0224 35.4627 16.5184 37.1609H29.3054C28.8014 35.4627 27.6435 31.7072 27.4422 29.0842H18.383ZM12.6313 38.6282C12.2245 38.6282 11.897 38.9557 11.897 39.3625V41.5657C11.897 41.9725 12.2245 42.3 12.6313 42.3H33.1924C33.5993 42.3 33.9268 41.9725 33.9268 41.5657V39.3625C33.9268 38.9557 33.5993 38.6282 33.1924 38.6282H12.6313Z"/>
</mask>
<path d="M5.2876 1.17505C3.67292 1.17505 2.3501 2.49782 2.3501 4.11255V21.7361H43.4737V4.11255C43.4737 2.49782 42.1494 1.17505 40.5347 1.17505H5.2876ZM21.4438 3.39539H24.3828C24.7889 3.39384 25.1192 3.7222 25.12 4.12833L25.1215 5.63437C25.2337 5.67761 25.3719 5.73818 25.4815 5.78783L26.5501 4.72356C26.8423 4.43306 27.2992 4.43879 27.5857 4.72356L29.6611 6.79473C29.9497 7.08185 29.9497 7.54893 29.6611 7.83605L28.5983 8.90175C28.6469 9.01078 28.7053 9.15014 28.7475 9.26177H30.2578C30.6634 9.26338 30.9909 9.59344 30.9893 9.99901V12.9308C30.9885 13.3347 30.6617 13.6621 30.2578 13.6637H28.7503C28.7081 13.7754 28.6497 13.9161 28.6012 14.0252L29.6669 15.098C29.9547 15.385 29.9502 15.8481 29.6624 16.1351L27.587 18.2062C27.3005 18.491 26.8379 18.491 26.5514 18.2062L25.4857 17.1434C25.3761 17.1931 25.2321 17.2493 25.1199 17.2926V18.7972C25.1215 19.205 24.7905 19.536 24.3827 19.5344H21.4437C21.0382 19.5328 20.7107 19.2027 20.7122 18.7972V17.2897C20.6005 17.2474 20.457 17.1892 20.3479 17.1405L19.2808 18.2062C18.9938 18.4939 18.5278 18.4939 18.2409 18.2062L16.164 16.1351C15.8764 15.8481 15.8764 15.3821 16.164 15.0952L17.2326 14.028C17.1829 13.9187 17.121 13.7758 17.0777 13.6637H15.573C15.1669 13.6653 14.8366 13.3369 14.8358 12.9308V9.99902C14.8343 9.59121 15.1652 9.26024 15.573 9.26178H17.0805C17.1238 9.15045 17.1803 9.01045 17.2297 8.90176L16.164 7.83606C15.8754 7.54894 15.8754 7.08186 16.164 6.79474L18.2409 4.72357C18.5278 4.43594 18.9938 4.43594 19.2808 4.72357L20.3508 5.78784C20.4596 5.73927 20.6007 5.67948 20.7122 5.63724V4.12833C20.713 3.72444 21.04 3.397 21.4438 3.39539ZM22.1825 4.86557V6.17081C22.1811 6.50121 21.9592 6.79001 21.6404 6.87649C21.2643 6.97972 20.9057 7.12999 20.566 7.32114C20.2784 7.4852 19.9165 7.43643 19.6825 7.20209L18.7617 6.27982L17.7261 7.3154L18.6469 8.24198C18.8812 8.47596 18.93 8.83785 18.766 9.12552C18.5721 9.46364 18.4228 9.82492 18.317 10.1998C18.2262 10.5142 17.9385 10.7306 17.6113 10.7305H16.3047V12.1935H17.6113C17.9405 12.1944 18.229 12.4142 18.317 12.7314C18.4228 13.1063 18.5722 13.4662 18.766 13.8043C18.93 14.092 18.8812 14.4539 18.6469 14.6878L17.7261 15.6144L18.7617 16.65L19.6825 15.7292C19.9151 15.4929 20.2771 15.4418 20.566 15.6044C20.9057 15.7955 21.2643 15.9458 21.6404 16.049C21.9608 16.1359 22.183 16.427 22.1825 16.759V18.0657H23.6513V16.7647C23.652 16.436 23.8711 16.1477 24.1877 16.059C24.5636 15.9534 24.9216 15.8037 25.2606 15.6101C25.547 15.4446 25.9088 15.4909 26.1441 15.7234L27.0721 16.65L28.1077 15.6144L27.1855 14.6936C26.954 14.4605 26.9054 14.1021 27.0664 13.8158C27.2579 13.4761 27.4078 13.1116 27.5111 12.7357C27.5974 12.4173 27.8854 12.1956 28.2153 12.1935H29.5277V10.7305H28.2153C27.887 10.7292 27.5996 10.5102 27.5111 10.1941C27.4079 9.81825 27.2579 9.45512 27.0664 9.11546C26.9046 8.82882 26.9531 8.46951 27.1855 8.23622L28.1077 7.31539L27.0721 6.2798L26.1441 7.20207C25.9101 7.43642 25.5483 7.48519 25.2606 7.32112C24.9216 7.12747 24.5636 6.97641 24.1877 6.87074C23.8717 6.78226 23.6526 6.49474 23.6513 6.16649V4.86555L22.1825 4.86557ZM22.914 8.53027C24.5276 8.53027 25.8515 9.85429 25.8515 11.4678C25.8515 13.0813 24.5276 14.4067 22.914 14.4067C21.3004 14.4067 19.9751 13.0813 19.9751 11.4678C19.9751 9.85429 21.3004 8.53027 22.914 8.53027ZM22.914 9.99902C22.0941 9.99902 21.4438 10.6482 21.4438 11.4678C21.4438 12.2873 22.0941 12.9365 22.914 12.9365C23.734 12.9365 24.3828 12.2873 24.3828 11.4678C24.3828 10.6482 23.734 9.99902 22.914 9.99902ZM2.3501 23.2063V24.6765C2.3501 26.2912 3.67292 27.614 5.2876 27.614H40.5347C42.1494 27.614 43.4737 26.2912 43.4737 24.6765V23.2063H2.3501ZM18.383 29.0842C18.1814 31.7072 17.0224 35.4627 16.5184 37.1609H29.3054C28.8014 35.4627 27.6435 31.7072 27.4422 29.0842H18.383ZM12.6313 38.6282C12.2245 38.6282 11.897 38.9557 11.897 39.3625V41.5657C11.897 41.9725 12.2245 42.3 12.6313 42.3H33.1924C33.5993 42.3 33.9268 41.9725 33.9268 41.5657V39.3625C33.9268 38.9557 33.5993 38.6282 33.1924 38.6282H12.6313Z" stroke="#111111" stroke-width="1.6" mask="url(#path-1-inside-1_2602_917)"/>
</svg>
